<?xml version="1.0" standalone="no"?>
<!DOCTYPE svg PUBLIC "-//W3C//DTD SVG 20010904//EN"
 "http://www.w3.org/TR/2001/REC-SVG-20010904/DTD/svg10.dtd">
<svg version="1.0" xmlns="http://www.w3.org/2000/svg"
 width="225.000000pt" height="225.000000pt" viewBox="0 0 225.000000 225.000000"
 preserveAspectRatio="xMidYMid meet">
<metadata>
Created by potrace 1.14, written by Peter Selinger 2001-2017
</metadata>
<g transform="translate(0.000000,225.000000) scale(0.100000,-0.100000)"
fill="#000000" stroke="none">
<path d="M1008 1950 c-84 -15 -162 -41 -248 -86 -190 -98 -328 -262 -402 -474
-32 -92 -33 -100 -33 -255 0 -155 1 -163 33 -255 18 -52 44 -114 57 -137 l25
-41 -82 -197 c-61 -149 -78 -199 -69 -208 9 -9 62 5 220 58 l209 69 79 -36
c126 -59 190 -72 343 -73 176 0 293 31 438 116 73 44 227 198 271 271 84 144
116 263 116 433 0 186 -36 305 -136 455 -181 270 -506 413 -821 360z m327 -65
c33 -9 103 -37 155 -62 81 -40 109 -61 190 -143 107 -107 149 -172 191 -294
127 -369 -42 -776 -394 -946 -116 -56 -199 -74 -337 -73 -140 0 -225 19 -338
75 l-83 40 -176 -60 c-98 -34 -179 -59 -181 -57 -3 2 26 79 63 170 l68 166
-41 87 c-22 48 -48 112 -57 142 -25 81 -31 268 -12 357 69 322 324 564 652
617 55 8 239 -3 300 -19z"/>
<path d="M1080 1471 c-74 -15 -127 -58 -155 -123 -21 -52 -19 -75 8 -82 51
-13 61 -8 77 41 20 63 63 93 133 93 44 0 53 -4 88 -39 35 -34 39 -44 39 -87 0
-46 -2 -50 -70 -116 -76 -73 -109 -131 -110 -190 l0 -38 45 0 c45 0 45 0 45
35 0 50 19 80 90 150 76 74 90 100 90 166 0 97 -65 169 -169 189 -59 11 -60
11 -111 1z"/>
<path d="M1090 800 l0 -50 45 0 c42 0 45 2 45 28 0 15 3 37 6 50 6 21 3 22
-45 22 l-51 0 0 -50z"/>
</g>
</svg>
